<mxfile host="app.diagrams.net" modified="2022-10-27T17:36:23.253Z" agent="5.0 (Windows NT 10.0; Win64; x64) AppleWebKit/537.36 (KHTML, like Gecko) Chrome/106.0.0.0 Safari/537.36" etag="q4IuBBz-a22EuMFCNi5P" version="20.5.1" type="github">
  <diagram id="YI6sffbJaP0gd96skZTT" name="Page-1">
    <mxGraphModel dx="2235" dy="662" grid="1" gridSize="10" guides="1" tooltips="1" connect="1" arrows="1" fold="1" page="1" pageScale="1" pageWidth="850" pageHeight="1100" math="0" shadow="0">
      <root>
        <mxCell id="0" />
        <mxCell id="1" parent="0" />
        <mxCell id="Rrb-P_AXiegTYBv3a000-14" style="edgeStyle=orthogonalEdgeStyle;rounded=0;orthogonalLoop=1;jettySize=auto;html=1;exitX=0;exitY=0.5;exitDx=0;exitDy=0;entryX=1;entryY=0.5;entryDx=0;entryDy=0;" edge="1" parent="1" source="Rrb-P_AXiegTYBv3a000-1" target="Rrb-P_AXiegTYBv3a000-13">
          <mxGeometry relative="1" as="geometry" />
        </mxCell>
        <mxCell id="Rrb-P_AXiegTYBv3a000-21" style="edgeStyle=orthogonalEdgeStyle;rounded=0;orthogonalLoop=1;jettySize=auto;html=1;exitX=0.5;exitY=1;exitDx=0;exitDy=0;" edge="1" parent="1" source="Rrb-P_AXiegTYBv3a000-1" target="Rrb-P_AXiegTYBv3a000-20">
          <mxGeometry relative="1" as="geometry" />
        </mxCell>
        <mxCell id="Rrb-P_AXiegTYBv3a000-22" style="edgeStyle=orthogonalEdgeStyle;rounded=0;orthogonalLoop=1;jettySize=auto;html=1;exitX=1;exitY=0.5;exitDx=0;exitDy=0;" edge="1" parent="1" source="Rrb-P_AXiegTYBv3a000-1" target="Rrb-P_AXiegTYBv3a000-18">
          <mxGeometry relative="1" as="geometry" />
        </mxCell>
        <mxCell id="Rrb-P_AXiegTYBv3a000-1" value="Пользовательские истории" style="rounded=0;whiteSpace=wrap;html=1;" vertex="1" parent="1">
          <mxGeometry x="120" y="320" width="120" height="60" as="geometry" />
        </mxCell>
        <mxCell id="Rrb-P_AXiegTYBv3a000-2" value="Как пользователь, я хочу компактно узнать свои показатели" style="ellipse;whiteSpace=wrap;html=1;" vertex="1" parent="1">
          <mxGeometry x="-340" y="170" width="190" height="80" as="geometry" />
        </mxCell>
        <mxCell id="Rrb-P_AXiegTYBv3a000-4" value="Как пользователь, я хочу компактно узнать свои показатели." style="ellipse;whiteSpace=wrap;html=1;" vertex="1" parent="1">
          <mxGeometry x="-340" y="260" width="190" height="80" as="geometry" />
        </mxCell>
        <mxCell id="Rrb-P_AXiegTYBv3a000-5" value="Как гость, я хочу быстро и удобно зарегистрировать себя как пользователя" style="ellipse;whiteSpace=wrap;html=1;" vertex="1" parent="1">
          <mxGeometry x="520" y="200" width="190" height="80" as="geometry" />
        </mxCell>
        <mxCell id="Rrb-P_AXiegTYBv3a000-15" style="edgeStyle=orthogonalEdgeStyle;rounded=0;orthogonalLoop=1;jettySize=auto;html=1;exitX=0;exitY=0.5;exitDx=0;exitDy=0;" edge="1" parent="1" source="Rrb-P_AXiegTYBv3a000-13" target="Rrb-P_AXiegTYBv3a000-2">
          <mxGeometry relative="1" as="geometry">
            <Array as="points">
              <mxPoint x="-110" y="210" />
            </Array>
          </mxGeometry>
        </mxCell>
        <mxCell id="Rrb-P_AXiegTYBv3a000-16" style="edgeStyle=orthogonalEdgeStyle;rounded=0;orthogonalLoop=1;jettySize=auto;html=1;exitX=0;exitY=0.5;exitDx=0;exitDy=0;entryX=1;entryY=0.5;entryDx=0;entryDy=0;" edge="1" parent="1" source="Rrb-P_AXiegTYBv3a000-13" target="Rrb-P_AXiegTYBv3a000-4">
          <mxGeometry relative="1" as="geometry" />
        </mxCell>
        <mxCell id="Rrb-P_AXiegTYBv3a000-13" value="&#xa;&lt;br style=&quot;color: rgb(0, 0, 0); font-family: Helvetica; font-size: 12px; font-style: normal; font-variant-ligatures: normal; font-variant-caps: normal; font-weight: 400; letter-spacing: normal; orphans: 2; text-align: center; text-indent: 0px; text-transform: none; widows: 2; word-spacing: 0px; -webkit-text-stroke-width: 0px; background-color: rgb(248, 249, 250); text-decoration-thickness: initial; text-decoration-style: initial; text-decoration-color: initial;&quot;&gt;&lt;span style=&quot;color: rgb(0, 0, 0); font-family: Helvetica; font-size: 12px; font-style: normal; font-variant-ligatures: normal; font-variant-caps: normal; font-weight: 400; letter-spacing: normal; orphans: 2; text-align: center; text-indent: 0px; text-transform: none; widows: 2; word-spacing: 0px; -webkit-text-stroke-width: 0px; text-decoration-thickness: initial; text-decoration-style: initial; text-decoration-color: initial; background-color: rgb(248, 249, 250); float: none; display: inline !important;&quot;&gt;Зарегистрированные&lt;br&gt;пользователи&lt;/span&gt;&#xa;&#xa;" style="shape=process;whiteSpace=wrap;html=1;backgroundOutline=1;" vertex="1" parent="1">
          <mxGeometry x="-110" y="320" width="180" height="60" as="geometry" />
        </mxCell>
        <mxCell id="Rrb-P_AXiegTYBv3a000-23" style="edgeStyle=orthogonalEdgeStyle;rounded=0;orthogonalLoop=1;jettySize=auto;html=1;exitX=1;exitY=0.5;exitDx=0;exitDy=0;entryX=0;entryY=0.5;entryDx=0;entryDy=0;" edge="1" parent="1" source="Rrb-P_AXiegTYBv3a000-18" target="Rrb-P_AXiegTYBv3a000-5">
          <mxGeometry relative="1" as="geometry" />
        </mxCell>
        <mxCell id="Rrb-P_AXiegTYBv3a000-18" value="Гостевые пользователи" style="shape=process;whiteSpace=wrap;html=1;backgroundOutline=1;" vertex="1" parent="1">
          <mxGeometry x="280" y="320" width="180" height="60" as="geometry" />
        </mxCell>
        <mxCell id="Rrb-P_AXiegTYBv3a000-20" value="Администрирующие пользователи" style="shape=process;whiteSpace=wrap;html=1;backgroundOutline=1;" vertex="1" parent="1">
          <mxGeometry x="90" y="430" width="180" height="60" as="geometry" />
        </mxCell>
      </root>
    </mxGraphModel>
  </diagram>
</mxfile>
